<svg xmlns="http://www.w3.org/2000/svg" width="1541" height="1427" viewBox="0 0 1541 1427" fill="none"><g opacity="0.77"><g filter="url(#filter0_f_5062_154)"><ellipse cx="432.191" cy="238.526" rx="432.191" ry="238.526" transform="matrix(-0.993609 -0.112877 -0.112877 0.993609 1266.76 696.577)" fill="#8349FF"></ellipse></g><g filter="url(#filter1_f_5062_154)"><path d="M506.969 737.67C467.595 681.914 465.345 639.358 445.697 574C407.771 447.837 435.704 364.983 390.626 241.193C298.648 -11.395 139.594 783.702 365.826 929.043C508.042 1020.41 924.19 1042.31 798.736 929.043C748.634 883.807 700.682 888.583 644.099 851.765C585.704 813.767 547.149 794.568 506.969 737.67Z" fill="url(#paint0_linear_5062_154)"></path></g></g><defs><filter id="filter0_f_5062_154" x="80.1157" y="342.776" width="1460.57" height="1084.04" filterUnits="userSpaceOnUse" color-interpolation-filters="sRGB"><feGaussianBlur stdDeviation="150"></feGaussianBlur></filter><filter id="filter1_f_5062_154" x="0" y="-58" width="1072" height="1314" filterUnits="userSpaceOnUse" color-interpolation-filters="sRGB"><feGaussianBlur stdDeviation="125"></feGaussianBlur></filter><linearGradient id="paint0_linear_5062_154" x1="429.285" y1="472.663" x2="572.848" y2="888.992" gradientUnits="userSpaceOnUse"><stop stop-color="#FF0095"></stop><stop offset="1" stop-color="#FFCDFF"></stop></linearGradient></defs></svg>